<svg xmlns="http://www.w3.org/2000/svg" version="1.1" xmlns:xlink="http://www.w3.org/1999/xlink" xmlns:svgjs="http://svgjs.dev/svgjs" viewBox="0 0 7.921179370487104 5.306036551920643"><g transform="matrix(0.8279938186901851,0,0,0.8279938186901851,1.137581450086869,3.4655983928921232)"><rect width="9.023447364021083" height="9.023447364021083" x="-1.102267993533979" y="-5.493107961203874" fill="#fffdfa"></rect><g transform="matrix(1,0,0,1,0,0)" clip-path="url(#SvgjsClipPath1813)"><g clip-path="url(#a2fd776fe-195b-420a-8e8b-3baade48a11b7eaf53b3-7d93-4249-89ac-179d92e9c36f)"><path d=" M 5.0204920736290255 -0.770367258485781 L 5.0204920736290255 -1.5198477224041547 L 3.409443220409223 -0.9947425983293239 L 1.7984193033241 -1.5198477224041547 L 1.7984193033241 -0.770367258485781 L 1.8004890025024747 -0.770367258485781 C 1.799128539072071 -0.7621664435284328 1.7984363640047527 -0.7538686821792528 1.7984193033241007 -0.7455558044799657 C 1.7984193033241 -0.4718817263756221 2.519746871189644 -0.25 3.4094930926785816 -0.25 C 4.29921437803284 -0.25 5.020541945898383 -0.4718817263756221 5.020541945898383 -0.7455558044799657 C 5.020541945898383 -0.7538595373281431 5.019843734127365 -0.7621383340416412 5.018497182854688 -0.770367258485781 Z" fill="url(#gradient-87a96660-b787-4945-9e31-636746416865_0)" transform="matrix(1,0,0,1,0,0)" fill-rule="nonzero"></path></g><g clip-path="url(#a2fd776fe-195b-420a-8e8b-3baade48a11b7eaf53b3-7d93-4249-89ac-179d92e9c36f)"><path d=" M 6.027263575167501 -1.4508494377467769 C 6.027263575167501 -1.4898495523850632 5.99659212951207 -1.5226655056229055 5.9541508282880535 -1.534884211615719 L 5.956843930833408 -1.534884211615719 L 5.956843930833408 -1.9887717350467224 L 6.362130927774629 -2.120908312711863 L 3.409443220409223 -3.0832685583866635 L 0.4567804491784959 -2.1209083127118626 L 3.409443220409223 -1.158498194767704 L 5.879965827617401 -1.963710919694115 L 5.879965827617401 -1.534884211615719 L 5.882658930162755 -1.534884211615719 C 5.840192692804058 -1.5226655056229055 5.809521247148629 -1.4898495523850632 5.809521247148629 -1.4508494377467769 C 5.809521247148629 -1.4191805467041787 5.829719516238789 -1.3915762456142917 5.860016919874031 -1.3756919278236341 L 5.691249160365128 -1.1075536716180754 L 6.145485789681642 -1.1075536716180754 L 5.9767928385767775 -1.3756919278236341 C 6.007015433807981 -1.3915762456142917 6.027263575167501 -1.4191805467041787 6.027263575167501 -1.4508494377467769" fill="url(#gradient-87a96660-b787-4945-9e31-636746416865_1)" transform="matrix(1,0,0,1,0,0)" fill-rule="nonzero"></path></g></g><g><path d=" M 0.87525 0.5797499999999999 Q 0.8310000000000001 0.6584999999999999 0.74175 0.7057499999999999 Q 0.6525 0.7529999999999999 0.5235 0.7529999999999999 L 0.378 0.7529999999999999 L 0.378 1.1099999999999999 L 0.084 1.1099999999999999 L 0.084 0.05249999999999977 L 0.5235 0.05249999999999977 Q 0.651 0.05249999999999977 0.74025 0.09749999999999992 Q 0.8295 0.14249999999999985 0.8745 0.22199999999999986 Q 0.9195 0.3014999999999999 0.9195 0.4049999999999999 Q 0.9195 0.5009999999999999 0.87525 0.5797499999999999 M 0.6195 0.4049999999999999 Q 0.6195 0.28949999999999987 0.495 0.28949999999999987 L 0.378 0.28949999999999987 L 0.378 0.5189999999999999 L 0.495 0.5189999999999999 Q 0.6195 0.5189999999999999 0.6195 0.4049999999999999 M 1.3304794921875 -2.220446049250313e-16 L 1.3304794921875 1.1099999999999999 L 1.0364794921875 1.1099999999999999 L 1.0364794921875 -2.220446049250313e-16 L 1.3304794921875 -2.220446049250313e-16 M 1.49620458984375 0.4604999999999999 Q 1.54345458984375 0.3629999999999999 1.62520458984375 0.3104999999999999 Q 1.70695458984375 0.2579999999999999 1.80745458984375 0.2579999999999999 Q 1.89445458984375 0.2579999999999999 1.9574545898437499 0.29249999999999987 Q 2.02045458984375 0.32699999999999985 2.05495458984375 0.38549999999999984 L 2.05495458984375 0.26849999999999985 L 2.34895458984375 0.26849999999999985 L 2.34895458984375 1.1099999999999999 L 2.05495458984375 1.1099999999999999 L 2.05495458984375 0.9929999999999999 Q 2.02045458984375 1.0514999999999999 1.95670458984375 1.0859999999999999 Q 1.8929545898437499 1.1204999999999998 1.80745458984375 1.1204999999999998 Q 1.70695458984375 1.1204999999999998 1.62520458984375 1.0679999999999998 Q 1.54345458984375 1.0154999999999998 1.49620458984375 0.9172499999999999 Q 1.44895458984375 0.819 1.44895458984375 0.6884999999999999 Q 1.44895458984375 0.5579999999999998 1.49620458984375 0.4604999999999999 M 2.01070458984375 0.5609999999999998 Q 1.96645458984375 0.5144999999999998 1.9019545898437498 0.5144999999999998 Q 1.83595458984375 0.5144999999999998 1.7924545898437498 0.5602499999999999 Q 1.74895458984375 0.6059999999999999 1.74895458984375 0.6884999999999999 Q 1.74895458984375 0.7694999999999999 1.7924545898437498 0.8167499999999999 Q 1.83595458984375 0.8639999999999999 1.9019545898437498 0.8639999999999999 Q 1.96645458984375 0.8639999999999999 2.01070458984375 0.8174999999999999 Q 2.05495458984375 0.7709999999999999 2.05495458984375 0.6884999999999999 Q 2.05495458984375 0.6074999999999998 2.01070458984375 0.5609999999999998 M 3.2969436035156248 0.3577499999999999 Q 3.382443603515625 0.4544999999999999 3.382443603515625 0.6194999999999999 L 3.382443603515625 1.1099999999999999 L 3.088443603515625 1.1099999999999999 L 3.088443603515625 0.6584999999999999 Q 3.088443603515625 0.5864999999999999 3.0509436035156248 0.5452499999999999 Q 3.0134436035156247 0.5039999999999999 2.950443603515625 0.5039999999999999 Q 2.8844436035156247 0.5039999999999999 2.846943603515625 0.5452499999999999 Q 2.809443603515625 0.5864999999999999 2.809443603515625 0.6584999999999999 L 2.809443603515625 1.1099999999999999 L 2.515443603515625 1.1099999999999999 L 2.515443603515625 0.26849999999999985 L 2.809443603515625 0.26849999999999985 L 2.809443603515625 0.38849999999999985 Q 2.8484436035156246 0.3314999999999999 2.914443603515625 0.2962499999999999 Q 2.9804436035156248 0.2609999999999999 3.065943603515625 0.2609999999999999 Q 3.211443603515625 0.2609999999999999 3.2969436035156248 0.3577499999999999 M 3.5354047851562496 0.9299999999999999 L 3.5354047851562496 0.6869999999999998 L 3.9959047851562497 0.029999999999999805 L 4.3184047851562495 0.029999999999999805 L 4.3184047851562495 0.6749999999999998 L 4.433904785156249 0.6749999999999998 L 4.433904785156249 0.9299999999999999 L 4.3184047851562495 0.9299999999999999 L 4.3184047851562495 1.1099999999999999 L 4.02140478515625 1.1099999999999999 L 4.02140478515625 0.9299999999999999 L 3.5354047851562496 0.9299999999999999 M 4.04390478515625 0.3614999999999998 L 3.83690478515625 0.6749999999999998 L 4.04390478515625 0.6749999999999998 L 4.04390478515625 0.3614999999999998 M 5.812373291015625 0.05249999999999977 L 5.812373291015625 1.1099999999999999 L 5.5183732910156245 1.1099999999999999 L 5.5183732910156245 0.5264999999999999 L 5.318873291015625 1.1099999999999999 L 5.0728732910156245 1.1099999999999999 L 4.871873291015625 0.5219999999999999 L 4.871873291015625 1.1099999999999999 L 4.577873291015624 1.1099999999999999 L 4.577873291015624 0.05249999999999977 L 4.9333732910156245 0.05249999999999977 L 5.198873291015625 0.7394999999999998 L 5.458373291015625 0.05249999999999977 L 5.812373291015625 0.05249999999999977 M 6.778369628906249 0.7484999999999999 L 6.22186962890625 0.7484999999999999 Q 6.22636962890625 0.8174999999999999 6.260119628906249 0.8512499999999998 Q 6.29386962890625 0.8849999999999999 6.34636962890625 0.8849999999999999 Q 6.41986962890625 0.8849999999999999 6.451369628906249 0.819 L 6.76486962890625 0.819 Q 6.74536962890625 0.9059999999999999 6.68911962890625 0.9742499999999998 Q 6.632869628906249 1.0425 6.5473696289062495 1.0815 Q 6.46186962890625 1.1204999999999998 6.3583696289062495 1.1204999999999998 Q 6.23386962890625 1.1204999999999998 6.13711962890625 1.0679999999999998 Q 6.04036962890625 1.0154999999999998 5.9856196289062495 0.9179999999999999 Q 5.930869628906249 0.8204999999999999 5.930869628906249 0.6884999999999999 Q 5.930869628906249 0.5564999999999999 5.9848696289062495 0.4597499999999999 Q 6.03886962890625 0.3629999999999999 6.13561962890625 0.3104999999999999 Q 6.23236962890625 0.2579999999999999 6.3583696289062495 0.2579999999999999 Q 6.48286962890625 0.2579999999999999 6.57886962890625 0.30899999999999983 Q 6.67486962890625 0.3599999999999999 6.728869628906249 0.4552499999999998 Q 6.78286962890625 0.5504999999999999 6.78286962890625 0.6794999999999999 Q 6.78286962890625 0.7139999999999999 6.778369628906249 0.7484999999999999 M 6.48286962890625 0.6059999999999999 Q 6.48286962890625 0.5519999999999998 6.446869628906249 0.5212499999999999 Q 6.41086962890625 0.4904999999999998 6.356869628906249 0.4904999999999998 Q 6.30286962890625 0.4904999999999998 6.26836962890625 0.5197499999999998 Q 6.23386962890625 0.5489999999999998 6.22336962890625 0.6059999999999999 L 6.48286962890625 0.6059999999999999" fill="#000000" fill-rule="nonzero"></path></g><g></g></g><defs><clipPath id="SvgjsClipPath1813"><path d=" M 0.4567804491784959 -3.083268558386664 h 5.905350478596133 v 2.833268558386664 h -5.905350478596133 Z"></path></clipPath><clipPath id="a2fd776fe-195b-420a-8e8b-3baade48a11b7eaf53b3-7d93-4249-89ac-179d92e9c36f"><path d=" M 0.4567804491784959 -0.25 L 6.362130927774629 -0.25 L 6.362130927774629 -3.0832685583866635 L 0.4567804491784959 -3.0832685583866635 Z"></path></clipPath><linearGradient id="gradient-87a96660-b787-4945-9e31-636746416865_0" x1="0" x2="1" y1="0" y2="1"><stop stop-color="#275b7f" offset="0"></stop><stop stop-color="#142b44" offset="1"></stop></linearGradient><linearGradient id="gradient-87a96660-b787-4945-9e31-636746416865_1" x1="0" x2="1" y1="0" y2="1"><stop stop-color="#3682ae" offset="0"></stop><stop stop-color="#162f48" offset="1"></stop></linearGradient></defs></svg>